<mxfile host="app.diagrams.net" modified="2023-09-04T13:23:47.171Z" agent="Mozilla/5.0 (Windows NT 10.0; Win64; x64) AppleWebKit/537.36 (KHTML, like Gecko) Chrome/115.0.0.0 Safari/537.36 OPR/101.0.0.0" etag="bmOiBKchgVXce78Dswy5" version="21.5.0" type="device">
  <diagram name="Page-1" id="gDV8GcBE-WOlRZ-AjZRq">
    <mxGraphModel dx="780" dy="2044" grid="1" gridSize="10" guides="1" tooltips="1" connect="1" arrows="1" fold="1" page="1" pageScale="1" pageWidth="827" pageHeight="1169" math="0" shadow="0">
      <root>
        <mxCell id="0" />
        <mxCell id="1" parent="0" />
        <mxCell id="Oh4bKbvERFsYT3evitHO-1" value="&lt;font style=&quot;font-size: 34px;&quot;&gt;&lt;b&gt;End&lt;/b&gt;&lt;/font&gt;" style="ellipse;whiteSpace=wrap;html=1;" vertex="1" parent="1">
          <mxGeometry x="132" y="610" width="120" height="80" as="geometry" />
        </mxCell>
        <mxCell id="Oh4bKbvERFsYT3evitHO-8" value="" style="edgeStyle=orthogonalEdgeStyle;rounded=0;orthogonalLoop=1;jettySize=auto;html=1;" edge="1" parent="1" source="Oh4bKbvERFsYT3evitHO-2" target="Oh4bKbvERFsYT3evitHO-4">
          <mxGeometry relative="1" as="geometry" />
        </mxCell>
        <mxCell id="Oh4bKbvERFsYT3evitHO-2" value="&lt;font style=&quot;font-size: 34px;&quot;&gt;&lt;b&gt;Start&lt;/b&gt;&lt;/font&gt;" style="ellipse;whiteSpace=wrap;html=1;" vertex="1" parent="1">
          <mxGeometry x="132" y="80" width="120" height="80" as="geometry" />
        </mxCell>
        <mxCell id="Oh4bKbvERFsYT3evitHO-9" value="" style="edgeStyle=orthogonalEdgeStyle;rounded=0;orthogonalLoop=1;jettySize=auto;html=1;" edge="1" parent="1" source="Oh4bKbvERFsYT3evitHO-4" target="Oh4bKbvERFsYT3evitHO-7">
          <mxGeometry relative="1" as="geometry" />
        </mxCell>
        <mxCell id="Oh4bKbvERFsYT3evitHO-4" value="string[] strings = new string[SetIntValue(&quot;Enter the array size: &quot;)];&lt;br&gt;FillByHandStringArray(strings);" style="rounded=0;whiteSpace=wrap;html=1;" vertex="1" parent="1">
          <mxGeometry x="20" y="200" width="344" height="60" as="geometry" />
        </mxCell>
        <mxCell id="Oh4bKbvERFsYT3evitHO-12" value="" style="edgeStyle=orthogonalEdgeStyle;rounded=0;orthogonalLoop=1;jettySize=auto;html=1;" edge="1" parent="1" source="Oh4bKbvERFsYT3evitHO-5" target="Oh4bKbvERFsYT3evitHO-1">
          <mxGeometry relative="1" as="geometry" />
        </mxCell>
        <mxCell id="Oh4bKbvERFsYT3evitHO-5" value="Console.WriteLine(&quot;Values of final array:&quot;);&lt;br&gt;Output1DStringArray(finalStrings);" style="rounded=0;whiteSpace=wrap;html=1;" vertex="1" parent="1">
          <mxGeometry x="75" y="500" width="234" height="60" as="geometry" />
        </mxCell>
        <mxCell id="Oh4bKbvERFsYT3evitHO-11" value="" style="edgeStyle=orthogonalEdgeStyle;rounded=0;orthogonalLoop=1;jettySize=auto;html=1;" edge="1" parent="1" source="Oh4bKbvERFsYT3evitHO-6" target="Oh4bKbvERFsYT3evitHO-5">
          <mxGeometry relative="1" as="geometry" />
        </mxCell>
        <mxCell id="Oh4bKbvERFsYT3evitHO-6" value="Console.WriteLine();&lt;br&gt;string[] finalStrings = new string[CompareStringLength(strings)];&lt;br&gt;CreateNewArray(strings, finalStrings);" style="rounded=0;whiteSpace=wrap;html=1;" vertex="1" parent="1">
          <mxGeometry x="22" y="400" width="340" height="60" as="geometry" />
        </mxCell>
        <mxCell id="Oh4bKbvERFsYT3evitHO-10" value="" style="edgeStyle=orthogonalEdgeStyle;rounded=0;orthogonalLoop=1;jettySize=auto;html=1;" edge="1" parent="1" source="Oh4bKbvERFsYT3evitHO-7" target="Oh4bKbvERFsYT3evitHO-6">
          <mxGeometry relative="1" as="geometry" />
        </mxCell>
        <mxCell id="Oh4bKbvERFsYT3evitHO-7" value="Console.WriteLine(&quot;Values of array:&quot;);&lt;br&gt;Output1DStringArray(strings);" style="rounded=0;whiteSpace=wrap;html=1;" vertex="1" parent="1">
          <mxGeometry x="90" y="300" width="204" height="60" as="geometry" />
        </mxCell>
        <mxCell id="Oh4bKbvERFsYT3evitHO-17" value="&lt;font style=&quot;font-size: 34px;&quot;&gt;&lt;b&gt;static void Main()&lt;/b&gt;&lt;/font&gt;" style="text;html=1;strokeColor=none;fillColor=none;align=center;verticalAlign=middle;whiteSpace=wrap;rounded=0;" vertex="1" parent="1">
          <mxGeometry x="42" y="30" width="300" height="30" as="geometry" />
        </mxCell>
        <mxCell id="Oh4bKbvERFsYT3evitHO-19" value="&lt;b&gt;return Convert.ToInt32(value)&lt;/b&gt;" style="ellipse;whiteSpace=wrap;html=1;" vertex="1" parent="1">
          <mxGeometry x="492.5" y="460" width="175" height="80" as="geometry" />
        </mxCell>
        <mxCell id="Oh4bKbvERFsYT3evitHO-24" style="edgeStyle=orthogonalEdgeStyle;rounded=0;orthogonalLoop=1;jettySize=auto;html=1;" edge="1" parent="1" source="Oh4bKbvERFsYT3evitHO-20" target="Oh4bKbvERFsYT3evitHO-21">
          <mxGeometry relative="1" as="geometry">
            <Array as="points">
              <mxPoint x="580" y="170" />
              <mxPoint x="580" y="170" />
            </Array>
          </mxGeometry>
        </mxCell>
        <mxCell id="Oh4bKbvERFsYT3evitHO-20" value="&lt;b style=&quot;border-color: var(--border-color);&quot;&gt;&lt;font style=&quot;border-color: var(--border-color); font-size: 24px;&quot;&gt;static&amp;nbsp; int SetIntValue(string text)&lt;/font&gt;&lt;/b&gt;" style="ellipse;whiteSpace=wrap;html=1;" vertex="1" parent="1">
          <mxGeometry x="422.5" y="80" width="315" height="80" as="geometry" />
        </mxCell>
        <mxCell id="Oh4bKbvERFsYT3evitHO-25" value="" style="edgeStyle=orthogonalEdgeStyle;rounded=0;orthogonalLoop=1;jettySize=auto;html=1;" edge="1" parent="1" source="Oh4bKbvERFsYT3evitHO-21" target="Oh4bKbvERFsYT3evitHO-22">
          <mxGeometry relative="1" as="geometry" />
        </mxCell>
        <mxCell id="Oh4bKbvERFsYT3evitHO-21" value="string value;&lt;br&gt;bool isWrong = false;&lt;br&gt;Console.Write(text);" style="rounded=0;whiteSpace=wrap;html=1;" vertex="1" parent="1">
          <mxGeometry x="520" y="200" width="120" height="60" as="geometry" />
        </mxCell>
        <mxCell id="Oh4bKbvERFsYT3evitHO-26" value="false" style="edgeStyle=orthogonalEdgeStyle;rounded=0;orthogonalLoop=1;jettySize=auto;html=1;" edge="1" parent="1" source="Oh4bKbvERFsYT3evitHO-22" target="Oh4bKbvERFsYT3evitHO-19">
          <mxGeometry relative="1" as="geometry" />
        </mxCell>
        <mxCell id="Oh4bKbvERFsYT3evitHO-28" value="true" style="edgeStyle=orthogonalEdgeStyle;rounded=0;orthogonalLoop=1;jettySize=auto;html=1;" edge="1" parent="1" source="Oh4bKbvERFsYT3evitHO-22" target="Oh4bKbvERFsYT3evitHO-23">
          <mxGeometry relative="1" as="geometry" />
        </mxCell>
        <mxCell id="Oh4bKbvERFsYT3evitHO-22" value="do&lt;br&gt;while (isWrong);" style="rhombus;whiteSpace=wrap;html=1;" vertex="1" parent="1">
          <mxGeometry x="520" y="330" width="120" height="80" as="geometry" />
        </mxCell>
        <mxCell id="Oh4bKbvERFsYT3evitHO-33" style="edgeStyle=orthogonalEdgeStyle;rounded=0;orthogonalLoop=1;jettySize=auto;html=1;entryX=0.5;entryY=0;entryDx=0;entryDy=0;" edge="1" parent="1" source="Oh4bKbvERFsYT3evitHO-23" target="Oh4bKbvERFsYT3evitHO-32">
          <mxGeometry relative="1" as="geometry">
            <Array as="points">
              <mxPoint x="775" y="400" />
              <mxPoint x="775" y="400" />
            </Array>
          </mxGeometry>
        </mxCell>
        <mxCell id="Oh4bKbvERFsYT3evitHO-23" value="value = Console.ReadLine() ?? string.Empty;" style="rounded=0;whiteSpace=wrap;html=1;" vertex="1" parent="1">
          <mxGeometry x="725" y="355" width="250" height="30" as="geometry" />
        </mxCell>
        <mxCell id="Oh4bKbvERFsYT3evitHO-40" value="false" style="edgeStyle=orthogonalEdgeStyle;rounded=0;orthogonalLoop=1;jettySize=auto;html=1;entryX=0;entryY=0.5;entryDx=0;entryDy=0;" edge="1" parent="1" source="Oh4bKbvERFsYT3evitHO-29" target="Oh4bKbvERFsYT3evitHO-22">
          <mxGeometry relative="1" as="geometry">
            <Array as="points">
              <mxPoint x="720" y="610" />
              <mxPoint x="480" y="610" />
              <mxPoint x="480" y="370" />
            </Array>
          </mxGeometry>
        </mxCell>
        <mxCell id="Oh4bKbvERFsYT3evitHO-42" value="true" style="edgeStyle=orthogonalEdgeStyle;rounded=0;orthogonalLoop=1;jettySize=auto;html=1;exitX=0.5;exitY=1;exitDx=0;exitDy=0;" edge="1" parent="1" source="Oh4bKbvERFsYT3evitHO-29" target="Oh4bKbvERFsYT3evitHO-30">
          <mxGeometry relative="1" as="geometry" />
        </mxCell>
        <mxCell id="Oh4bKbvERFsYT3evitHO-29" value="i &amp;lt; value.Length;" style="rhombus;whiteSpace=wrap;html=1;" vertex="1" parent="1">
          <mxGeometry x="720" y="480" width="110" height="80" as="geometry" />
        </mxCell>
        <mxCell id="Oh4bKbvERFsYT3evitHO-45" value="true" style="edgeStyle=orthogonalEdgeStyle;rounded=0;orthogonalLoop=1;jettySize=auto;html=1;" edge="1" parent="1" source="Oh4bKbvERFsYT3evitHO-30" target="Oh4bKbvERFsYT3evitHO-44">
          <mxGeometry relative="1" as="geometry" />
        </mxCell>
        <mxCell id="Oh4bKbvERFsYT3evitHO-48" value="false" style="edgeStyle=orthogonalEdgeStyle;rounded=0;orthogonalLoop=1;jettySize=auto;html=1;entryX=0;entryY=0.5;entryDx=0;entryDy=0;" edge="1" parent="1" source="Oh4bKbvERFsYT3evitHO-30" target="Oh4bKbvERFsYT3evitHO-47">
          <mxGeometry relative="1" as="geometry" />
        </mxCell>
        <mxCell id="Oh4bKbvERFsYT3evitHO-30" value="!char.IsDigit(value[i]))" style="rhombus;whiteSpace=wrap;html=1;" vertex="1" parent="1">
          <mxGeometry x="860" y="540" width="140" height="80" as="geometry" />
        </mxCell>
        <mxCell id="Oh4bKbvERFsYT3evitHO-34" value="" style="edgeStyle=orthogonalEdgeStyle;rounded=0;orthogonalLoop=1;jettySize=auto;html=1;" edge="1" parent="1" source="Oh4bKbvERFsYT3evitHO-32" target="Oh4bKbvERFsYT3evitHO-29">
          <mxGeometry relative="1" as="geometry" />
        </mxCell>
        <mxCell id="Oh4bKbvERFsYT3evitHO-32" value="int i = 0;" style="rounded=0;whiteSpace=wrap;html=1;" vertex="1" parent="1">
          <mxGeometry x="745" y="410" width="60" height="30" as="geometry" />
        </mxCell>
        <mxCell id="Oh4bKbvERFsYT3evitHO-46" style="edgeStyle=orthogonalEdgeStyle;rounded=0;orthogonalLoop=1;jettySize=auto;html=1;exitX=0.5;exitY=1;exitDx=0;exitDy=0;" edge="1" parent="1" source="Oh4bKbvERFsYT3evitHO-44">
          <mxGeometry relative="1" as="geometry">
            <mxPoint x="480" y="610" as="targetPoint" />
            <Array as="points">
              <mxPoint x="970" y="690" />
              <mxPoint x="480" y="690" />
            </Array>
          </mxGeometry>
        </mxCell>
        <mxCell id="Oh4bKbvERFsYT3evitHO-44" value="isWrong = true;&lt;br&gt;Console.Write(&quot;Wrong input! Enter the array size again: &quot;);&lt;br&gt;break;" style="rounded=0;whiteSpace=wrap;html=1;" vertex="1" parent="1">
          <mxGeometry x="850" y="660" width="160" height="60" as="geometry" />
        </mxCell>
        <mxCell id="Oh4bKbvERFsYT3evitHO-54" value="false" style="edgeStyle=orthogonalEdgeStyle;rounded=0;orthogonalLoop=1;jettySize=auto;html=1;entryX=0.5;entryY=1;entryDx=0;entryDy=0;" edge="1" parent="1" source="Oh4bKbvERFsYT3evitHO-47" target="Oh4bKbvERFsYT3evitHO-52">
          <mxGeometry relative="1" as="geometry" />
        </mxCell>
        <mxCell id="Oh4bKbvERFsYT3evitHO-55" value="true" style="edgeStyle=orthogonalEdgeStyle;rounded=0;orthogonalLoop=1;jettySize=auto;html=1;entryX=1;entryY=0.5;entryDx=0;entryDy=0;" edge="1" parent="1" source="Oh4bKbvERFsYT3evitHO-47" target="Oh4bKbvERFsYT3evitHO-49">
          <mxGeometry relative="1" as="geometry">
            <Array as="points">
              <mxPoint x="1200" y="408" />
            </Array>
          </mxGeometry>
        </mxCell>
        <mxCell id="Oh4bKbvERFsYT3evitHO-47" value="i == value .Length &amp;amp;&amp;amp; char.IsDigit(value[value.Length - 1]))" style="rhombus;whiteSpace=wrap;html=1;" vertex="1" parent="1">
          <mxGeometry x="960" y="470" width="240" height="90" as="geometry" />
        </mxCell>
        <mxCell id="Oh4bKbvERFsYT3evitHO-56" style="edgeStyle=orthogonalEdgeStyle;rounded=0;orthogonalLoop=1;jettySize=auto;html=1;entryX=0.5;entryY=0;entryDx=0;entryDy=0;" edge="1" parent="1" source="Oh4bKbvERFsYT3evitHO-49" target="Oh4bKbvERFsYT3evitHO-52">
          <mxGeometry relative="1" as="geometry" />
        </mxCell>
        <mxCell id="Oh4bKbvERFsYT3evitHO-49" value="isWrong = false;" style="rounded=0;whiteSpace=wrap;html=1;" vertex="1" parent="1">
          <mxGeometry x="1030" y="385" width="100" height="45" as="geometry" />
        </mxCell>
        <mxCell id="Oh4bKbvERFsYT3evitHO-57" style="edgeStyle=orthogonalEdgeStyle;rounded=0;orthogonalLoop=1;jettySize=auto;html=1;entryX=1;entryY=0.5;entryDx=0;entryDy=0;" edge="1" parent="1" source="Oh4bKbvERFsYT3evitHO-52" target="Oh4bKbvERFsYT3evitHO-29">
          <mxGeometry relative="1" as="geometry" />
        </mxCell>
        <mxCell id="Oh4bKbvERFsYT3evitHO-52" value="i++;" style="rounded=0;whiteSpace=wrap;html=1;" vertex="1" parent="1">
          <mxGeometry x="920" y="430" width="40" height="40" as="geometry" />
        </mxCell>
        <mxCell id="Oh4bKbvERFsYT3evitHO-61" value="" style="edgeStyle=orthogonalEdgeStyle;rounded=0;orthogonalLoop=1;jettySize=auto;html=1;" edge="1" parent="1" source="Oh4bKbvERFsYT3evitHO-58" target="Oh4bKbvERFsYT3evitHO-59">
          <mxGeometry relative="1" as="geometry" />
        </mxCell>
        <mxCell id="Oh4bKbvERFsYT3evitHO-58" value="&lt;b&gt;&lt;font style=&quot;font-size: 24px;&quot;&gt;static string SetStringValue(string text)&lt;/font&gt;&lt;/b&gt;" style="ellipse;whiteSpace=wrap;html=1;" vertex="1" parent="1">
          <mxGeometry x="1150" y="80" width="350" height="80" as="geometry" />
        </mxCell>
        <mxCell id="Oh4bKbvERFsYT3evitHO-62" value="" style="edgeStyle=orthogonalEdgeStyle;rounded=0;orthogonalLoop=1;jettySize=auto;html=1;" edge="1" parent="1" source="Oh4bKbvERFsYT3evitHO-59" target="Oh4bKbvERFsYT3evitHO-60">
          <mxGeometry relative="1" as="geometry" />
        </mxCell>
        <mxCell id="Oh4bKbvERFsYT3evitHO-59" value="Console.Write(text);&lt;br&gt;string? value = Console.ReadLine() ?? string.Empty;" style="rounded=0;whiteSpace=wrap;html=1;" vertex="1" parent="1">
          <mxGeometry x="1182.5" y="205" width="285" height="50" as="geometry" />
        </mxCell>
        <mxCell id="Oh4bKbvERFsYT3evitHO-60" value="&lt;b&gt;&lt;font style=&quot;font-size: 18px;&quot;&gt;return value;&lt;/font&gt;&lt;/b&gt;" style="ellipse;whiteSpace=wrap;html=1;" vertex="1" parent="1">
          <mxGeometry x="1265" y="290" width="120" height="80" as="geometry" />
        </mxCell>
        <mxCell id="Oh4bKbvERFsYT3evitHO-66" value="" style="edgeStyle=orthogonalEdgeStyle;rounded=0;orthogonalLoop=1;jettySize=auto;html=1;" edge="1" parent="1" source="Oh4bKbvERFsYT3evitHO-63" target="Oh4bKbvERFsYT3evitHO-65">
          <mxGeometry relative="1" as="geometry" />
        </mxCell>
        <mxCell id="Oh4bKbvERFsYT3evitHO-63" value="&lt;b&gt;&lt;font style=&quot;font-size: 24px;&quot;&gt;static void Output1DStringArray(string[] array)&lt;/font&gt;&lt;/b&gt;" style="ellipse;whiteSpace=wrap;html=1;" vertex="1" parent="1">
          <mxGeometry x="1280" y="405" width="440" height="90" as="geometry" />
        </mxCell>
        <mxCell id="Oh4bKbvERFsYT3evitHO-69" value="true" style="edgeStyle=orthogonalEdgeStyle;rounded=0;orthogonalLoop=1;jettySize=auto;html=1;" edge="1" parent="1" source="Oh4bKbvERFsYT3evitHO-64" target="Oh4bKbvERFsYT3evitHO-68">
          <mxGeometry relative="1" as="geometry" />
        </mxCell>
        <mxCell id="Oh4bKbvERFsYT3evitHO-72" value="false" style="edgeStyle=orthogonalEdgeStyle;rounded=0;orthogonalLoop=1;jettySize=auto;html=1;" edge="1" parent="1" source="Oh4bKbvERFsYT3evitHO-64" target="Oh4bKbvERFsYT3evitHO-71">
          <mxGeometry relative="1" as="geometry" />
        </mxCell>
        <mxCell id="Oh4bKbvERFsYT3evitHO-64" value="i &amp;lt; array.Length" style="rhombus;whiteSpace=wrap;html=1;" vertex="1" parent="1">
          <mxGeometry x="1445" y="620" width="110" height="80" as="geometry" />
        </mxCell>
        <mxCell id="Oh4bKbvERFsYT3evitHO-67" value="" style="edgeStyle=orthogonalEdgeStyle;rounded=0;orthogonalLoop=1;jettySize=auto;html=1;" edge="1" parent="1" source="Oh4bKbvERFsYT3evitHO-65" target="Oh4bKbvERFsYT3evitHO-64">
          <mxGeometry relative="1" as="geometry" />
        </mxCell>
        <mxCell id="Oh4bKbvERFsYT3evitHO-65" value="int i = 0;" style="rounded=0;whiteSpace=wrap;html=1;" vertex="1" parent="1">
          <mxGeometry x="1465" y="540" width="70" height="40" as="geometry" />
        </mxCell>
        <mxCell id="Oh4bKbvERFsYT3evitHO-70" style="edgeStyle=orthogonalEdgeStyle;rounded=0;orthogonalLoop=1;jettySize=auto;html=1;entryX=0.5;entryY=1;entryDx=0;entryDy=0;" edge="1" parent="1" source="Oh4bKbvERFsYT3evitHO-68" target="Oh4bKbvERFsYT3evitHO-64">
          <mxGeometry relative="1" as="geometry">
            <Array as="points">
              <mxPoint x="1680" y="720" />
              <mxPoint x="1500" y="720" />
            </Array>
          </mxGeometry>
        </mxCell>
        <mxCell id="Oh4bKbvERFsYT3evitHO-68" value="Console.WriteLine(array[i]);&lt;br&gt;i++;" style="rounded=0;whiteSpace=wrap;html=1;" vertex="1" parent="1">
          <mxGeometry x="1610" y="640" width="150" height="40" as="geometry" />
        </mxCell>
        <mxCell id="Oh4bKbvERFsYT3evitHO-71" value="&lt;font style=&quot;font-size: 24px;&quot;&gt;&lt;b&gt;End&lt;/b&gt;&lt;/font&gt;" style="ellipse;whiteSpace=wrap;html=1;" vertex="1" parent="1">
          <mxGeometry x="1290" y="635" width="90" height="50" as="geometry" />
        </mxCell>
        <mxCell id="Oh4bKbvERFsYT3evitHO-82" value="" style="edgeStyle=orthogonalEdgeStyle;rounded=0;orthogonalLoop=1;jettySize=auto;html=1;" edge="1" parent="1" source="Oh4bKbvERFsYT3evitHO-73" target="Oh4bKbvERFsYT3evitHO-78">
          <mxGeometry relative="1" as="geometry">
            <Array as="points">
              <mxPoint x="1830" y="150" />
              <mxPoint x="1830" y="150" />
            </Array>
          </mxGeometry>
        </mxCell>
        <mxCell id="Oh4bKbvERFsYT3evitHO-73" value="&lt;b&gt;&lt;font style=&quot;font-size: 24px;&quot;&gt;static string[] FillByHandStringArray(string[] array)&lt;/font&gt;&lt;/b&gt;" style="ellipse;whiteSpace=wrap;html=1;" vertex="1" parent="1">
          <mxGeometry x="1600" y="60" width="470" height="80" as="geometry" />
        </mxCell>
        <mxCell id="Oh4bKbvERFsYT3evitHO-74" value="true" style="edgeStyle=orthogonalEdgeStyle;rounded=0;orthogonalLoop=1;jettySize=auto;html=1;" edge="1" parent="1" source="Oh4bKbvERFsYT3evitHO-76" target="Oh4bKbvERFsYT3evitHO-80">
          <mxGeometry relative="1" as="geometry" />
        </mxCell>
        <mxCell id="Oh4bKbvERFsYT3evitHO-75" value="false" style="edgeStyle=orthogonalEdgeStyle;rounded=0;orthogonalLoop=1;jettySize=auto;html=1;" edge="1" parent="1" source="Oh4bKbvERFsYT3evitHO-76" target="Oh4bKbvERFsYT3evitHO-81">
          <mxGeometry relative="1" as="geometry" />
        </mxCell>
        <mxCell id="Oh4bKbvERFsYT3evitHO-76" value="i &amp;lt; array.Length" style="rhombus;whiteSpace=wrap;html=1;" vertex="1" parent="1">
          <mxGeometry x="1775" y="260" width="110" height="80" as="geometry" />
        </mxCell>
        <mxCell id="Oh4bKbvERFsYT3evitHO-77" value="" style="edgeStyle=orthogonalEdgeStyle;rounded=0;orthogonalLoop=1;jettySize=auto;html=1;" edge="1" parent="1" source="Oh4bKbvERFsYT3evitHO-78" target="Oh4bKbvERFsYT3evitHO-76">
          <mxGeometry relative="1" as="geometry" />
        </mxCell>
        <mxCell id="Oh4bKbvERFsYT3evitHO-78" value="int i = 0;" style="rounded=0;whiteSpace=wrap;html=1;" vertex="1" parent="1">
          <mxGeometry x="1795" y="180" width="70" height="40" as="geometry" />
        </mxCell>
        <mxCell id="Oh4bKbvERFsYT3evitHO-79" style="edgeStyle=orthogonalEdgeStyle;rounded=0;orthogonalLoop=1;jettySize=auto;html=1;entryX=0.5;entryY=1;entryDx=0;entryDy=0;" edge="1" parent="1" source="Oh4bKbvERFsYT3evitHO-80" target="Oh4bKbvERFsYT3evitHO-76">
          <mxGeometry relative="1" as="geometry">
            <Array as="points">
              <mxPoint x="2080" y="360" />
              <mxPoint x="1830" y="360" />
            </Array>
          </mxGeometry>
        </mxCell>
        <mxCell id="Oh4bKbvERFsYT3evitHO-80" value="array[i] = SetStringValue($&quot;Enter the {i} string: &quot;);&lt;br&gt;i++;" style="rounded=0;whiteSpace=wrap;html=1;" vertex="1" parent="1">
          <mxGeometry x="1940" y="280" width="270" height="40" as="geometry" />
        </mxCell>
        <mxCell id="Oh4bKbvERFsYT3evitHO-81" value="&lt;font size=&quot;1&quot; style=&quot;&quot;&gt;&lt;b style=&quot;font-size: 12px;&quot;&gt;return array;&lt;/b&gt;&lt;/font&gt;" style="ellipse;whiteSpace=wrap;html=1;" vertex="1" parent="1">
          <mxGeometry x="1620" y="275" width="90" height="50" as="geometry" />
        </mxCell>
        <mxCell id="Oh4bKbvERFsYT3evitHO-85" value="" style="edgeStyle=orthogonalEdgeStyle;rounded=0;orthogonalLoop=1;jettySize=auto;html=1;" edge="1" parent="1" source="Oh4bKbvERFsYT3evitHO-83" target="Oh4bKbvERFsYT3evitHO-84">
          <mxGeometry relative="1" as="geometry" />
        </mxCell>
        <mxCell id="Oh4bKbvERFsYT3evitHO-83" value="&lt;b&gt;&lt;font style=&quot;font-size: 24px;&quot;&gt;static int CompareStringLength(string[] array)&lt;/font&gt;&lt;/b&gt;" style="ellipse;whiteSpace=wrap;html=1;" vertex="1" parent="1">
          <mxGeometry x="204.5" y="790" width="440" height="80" as="geometry" />
        </mxCell>
        <mxCell id="Oh4bKbvERFsYT3evitHO-109" value="" style="edgeStyle=orthogonalEdgeStyle;rounded=0;orthogonalLoop=1;jettySize=auto;html=1;" edge="1" parent="1" source="Oh4bKbvERFsYT3evitHO-84" target="Oh4bKbvERFsYT3evitHO-92">
          <mxGeometry relative="1" as="geometry" />
        </mxCell>
        <mxCell id="Oh4bKbvERFsYT3evitHO-84" value="bool[] rightIndexes = new bool[array.Length];&lt;br&gt;int comparingValue = 3;" style="rounded=0;whiteSpace=wrap;html=1;" vertex="1" parent="1">
          <mxGeometry x="304.5" y="910" width="240" height="40" as="geometry" />
        </mxCell>
        <mxCell id="Oh4bKbvERFsYT3evitHO-98" value="true" style="edgeStyle=orthogonalEdgeStyle;rounded=0;orthogonalLoop=1;jettySize=auto;html=1;entryX=0.5;entryY=0;entryDx=0;entryDy=0;" edge="1" parent="1" source="Oh4bKbvERFsYT3evitHO-90" target="Oh4bKbvERFsYT3evitHO-97">
          <mxGeometry relative="1" as="geometry" />
        </mxCell>
        <mxCell id="Oh4bKbvERFsYT3evitHO-108" value="" style="edgeStyle=orthogonalEdgeStyle;rounded=0;orthogonalLoop=1;jettySize=auto;html=1;" edge="1" parent="1" source="Oh4bKbvERFsYT3evitHO-90" target="Oh4bKbvERFsYT3evitHO-107">
          <mxGeometry relative="1" as="geometry" />
        </mxCell>
        <mxCell id="Oh4bKbvERFsYT3evitHO-90" value="i &amp;lt; array.Length" style="rhombus;whiteSpace=wrap;html=1;" vertex="1" parent="1">
          <mxGeometry x="370" y="1069" width="110" height="80" as="geometry" />
        </mxCell>
        <mxCell id="Oh4bKbvERFsYT3evitHO-91" value="" style="edgeStyle=orthogonalEdgeStyle;rounded=0;orthogonalLoop=1;jettySize=auto;html=1;" edge="1" parent="1" source="Oh4bKbvERFsYT3evitHO-92" target="Oh4bKbvERFsYT3evitHO-90">
          <mxGeometry relative="1" as="geometry" />
        </mxCell>
        <mxCell id="Oh4bKbvERFsYT3evitHO-92" value="int i = 0;" style="rounded=0;whiteSpace=wrap;html=1;" vertex="1" parent="1">
          <mxGeometry x="390" y="989" width="70" height="40" as="geometry" />
        </mxCell>
        <mxCell id="Oh4bKbvERFsYT3evitHO-100" value="true" style="edgeStyle=orthogonalEdgeStyle;rounded=0;orthogonalLoop=1;jettySize=auto;html=1;" edge="1" parent="1" source="Oh4bKbvERFsYT3evitHO-97" target="Oh4bKbvERFsYT3evitHO-99">
          <mxGeometry relative="1" as="geometry" />
        </mxCell>
        <mxCell id="Oh4bKbvERFsYT3evitHO-104" value="false" style="edgeStyle=orthogonalEdgeStyle;rounded=0;orthogonalLoop=1;jettySize=auto;html=1;" edge="1" parent="1" source="Oh4bKbvERFsYT3evitHO-97">
          <mxGeometry relative="1" as="geometry">
            <mxPoint x="322.5" y="1150" as="targetPoint" />
          </mxGeometry>
        </mxCell>
        <mxCell id="Oh4bKbvERFsYT3evitHO-97" value="array[i].ToString().Length &amp;lt;= comparingValue)" style="rhombus;whiteSpace=wrap;html=1;" vertex="1" parent="1">
          <mxGeometry x="12.5" y="1069" width="288" height="80" as="geometry" />
        </mxCell>
        <mxCell id="Oh4bKbvERFsYT3evitHO-106" style="edgeStyle=orthogonalEdgeStyle;rounded=0;orthogonalLoop=1;jettySize=auto;html=1;entryX=0.5;entryY=1;entryDx=0;entryDy=0;" edge="1" parent="1" source="Oh4bKbvERFsYT3evitHO-99" target="Oh4bKbvERFsYT3evitHO-101">
          <mxGeometry relative="1" as="geometry" />
        </mxCell>
        <mxCell id="Oh4bKbvERFsYT3evitHO-99" value="rightIndexes[i] = true;" style="rounded=0;whiteSpace=wrap;html=1;" vertex="1" parent="1">
          <mxGeometry x="96.5" y="1220" width="120" height="40" as="geometry" />
        </mxCell>
        <mxCell id="Oh4bKbvERFsYT3evitHO-102" value="" style="edgeStyle=orthogonalEdgeStyle;rounded=0;orthogonalLoop=1;jettySize=auto;html=1;" edge="1" parent="1" source="Oh4bKbvERFsYT3evitHO-101" target="Oh4bKbvERFsYT3evitHO-90">
          <mxGeometry relative="1" as="geometry" />
        </mxCell>
        <mxCell id="Oh4bKbvERFsYT3evitHO-101" value="i++;" style="rounded=0;whiteSpace=wrap;html=1;" vertex="1" parent="1">
          <mxGeometry x="401.5" y="1190" width="47" height="30" as="geometry" />
        </mxCell>
        <mxCell id="Oh4bKbvERFsYT3evitHO-105" style="edgeStyle=orthogonalEdgeStyle;rounded=0;orthogonalLoop=1;jettySize=auto;html=1;" edge="1" parent="1" source="Oh4bKbvERFsYT3evitHO-103" target="Oh4bKbvERFsYT3evitHO-101">
          <mxGeometry relative="1" as="geometry">
            <Array as="points">
              <mxPoint x="312.5" y="1205" />
            </Array>
          </mxGeometry>
        </mxCell>
        <mxCell id="Oh4bKbvERFsYT3evitHO-103" value="rightIndexes[i] = false;" style="rounded=0;whiteSpace=wrap;html=1;" vertex="1" parent="1">
          <mxGeometry x="250" y="1151" width="120" height="39" as="geometry" />
        </mxCell>
        <mxCell id="Oh4bKbvERFsYT3evitHO-114" value="" style="edgeStyle=orthogonalEdgeStyle;rounded=0;orthogonalLoop=1;jettySize=auto;html=1;" edge="1" parent="1" source="Oh4bKbvERFsYT3evitHO-107" target="Oh4bKbvERFsYT3evitHO-113">
          <mxGeometry relative="1" as="geometry" />
        </mxCell>
        <mxCell id="Oh4bKbvERFsYT3evitHO-107" value="int arraySize = 0;" style="rounded=0;whiteSpace=wrap;html=1;" vertex="1" parent="1">
          <mxGeometry x="534.5" y="1089.5" width="120" height="39" as="geometry" />
        </mxCell>
        <mxCell id="Oh4bKbvERFsYT3evitHO-122" style="edgeStyle=orthogonalEdgeStyle;rounded=0;orthogonalLoop=1;jettySize=auto;html=1;entryX=0.5;entryY=1;entryDx=0;entryDy=0;" edge="1" parent="1" source="Oh4bKbvERFsYT3evitHO-113" target="Oh4bKbvERFsYT3evitHO-121">
          <mxGeometry relative="1" as="geometry">
            <Array as="points">
              <mxPoint x="772.5" y="1080" />
              <mxPoint x="772.5" y="1080" />
            </Array>
          </mxGeometry>
        </mxCell>
        <mxCell id="Oh4bKbvERFsYT3evitHO-113" value="&lt;span style=&quot;color: rgb(0, 0, 0); font-family: Helvetica; font-size: 12px; font-style: normal; font-variant-ligatures: normal; font-variant-caps: normal; font-weight: 400; letter-spacing: normal; orphans: 2; text-align: center; text-indent: 0px; text-transform: none; widows: 2; word-spacing: 0px; -webkit-text-stroke-width: 0px; background-color: rgb(251, 251, 251); text-decoration-thickness: initial; text-decoration-style: initial; text-decoration-color: initial; float: none; display: inline !important;&quot;&gt;foreach (bool flag in rightIndexes)&lt;/span&gt;" style="rounded=0;whiteSpace=wrap;html=1;" vertex="1" parent="1">
          <mxGeometry x="702.5" y="1090" width="200" height="40" as="geometry" />
        </mxCell>
        <mxCell id="Oh4bKbvERFsYT3evitHO-117" value="true" style="edgeStyle=orthogonalEdgeStyle;rounded=0;orthogonalLoop=1;jettySize=auto;html=1;" edge="1" parent="1" source="Oh4bKbvERFsYT3evitHO-115" target="Oh4bKbvERFsYT3evitHO-116">
          <mxGeometry relative="1" as="geometry" />
        </mxCell>
        <mxCell id="Oh4bKbvERFsYT3evitHO-118" value="false" style="edgeStyle=orthogonalEdgeStyle;rounded=0;orthogonalLoop=1;jettySize=auto;html=1;entryX=0.8;entryY=1;entryDx=0;entryDy=0;entryPerimeter=0;" edge="1" parent="1" source="Oh4bKbvERFsYT3evitHO-115" target="Oh4bKbvERFsYT3evitHO-113">
          <mxGeometry relative="1" as="geometry">
            <mxPoint x="842.5" y="1180" as="targetPoint" />
            <Array as="points">
              <mxPoint x="982.5" y="1169" />
              <mxPoint x="862.5" y="1169" />
            </Array>
          </mxGeometry>
        </mxCell>
        <mxCell id="Oh4bKbvERFsYT3evitHO-115" value="flag" style="rhombus;whiteSpace=wrap;html=1;" vertex="1" parent="1">
          <mxGeometry x="942.5" y="1069" width="80" height="80" as="geometry" />
        </mxCell>
        <mxCell id="Oh4bKbvERFsYT3evitHO-120" style="edgeStyle=orthogonalEdgeStyle;rounded=0;orthogonalLoop=1;jettySize=auto;html=1;" edge="1" parent="1" source="Oh4bKbvERFsYT3evitHO-116" target="Oh4bKbvERFsYT3evitHO-113">
          <mxGeometry relative="1" as="geometry">
            <Array as="points">
              <mxPoint x="862.5" y="1000" />
            </Array>
          </mxGeometry>
        </mxCell>
        <mxCell id="Oh4bKbvERFsYT3evitHO-116" value="arraySize++" style="rounded=0;whiteSpace=wrap;html=1;" vertex="1" parent="1">
          <mxGeometry x="935" y="980" width="95" height="40" as="geometry" />
        </mxCell>
        <mxCell id="Oh4bKbvERFsYT3evitHO-121" value="&lt;b&gt;return arraySize;&lt;/b&gt;" style="ellipse;whiteSpace=wrap;html=1;" vertex="1" parent="1">
          <mxGeometry x="712.5" y="989" width="120" height="50" as="geometry" />
        </mxCell>
        <mxCell id="Oh4bKbvERFsYT3evitHO-125" style="edgeStyle=orthogonalEdgeStyle;rounded=0;orthogonalLoop=1;jettySize=auto;html=1;entryX=0.5;entryY=0;entryDx=0;entryDy=0;" edge="1" parent="1" source="Oh4bKbvERFsYT3evitHO-123" target="Oh4bKbvERFsYT3evitHO-124">
          <mxGeometry relative="1" as="geometry">
            <Array as="points">
              <mxPoint x="1160" y="878" />
              <mxPoint x="1160" y="878" />
            </Array>
          </mxGeometry>
        </mxCell>
        <mxCell id="Oh4bKbvERFsYT3evitHO-123" value="&lt;b&gt;&lt;font style=&quot;font-size: 24px;&quot;&gt;static string[] CreateNewArray(string[] array, string[] finalArray)&lt;/font&gt;&lt;/b&gt;" style="ellipse;whiteSpace=wrap;html=1;" vertex="1" parent="1">
          <mxGeometry x="1020" y="770" width="740" height="80" as="geometry" />
        </mxCell>
        <mxCell id="Oh4bKbvERFsYT3evitHO-135" value="" style="edgeStyle=orthogonalEdgeStyle;rounded=0;orthogonalLoop=1;jettySize=auto;html=1;" edge="1" parent="1" source="Oh4bKbvERFsYT3evitHO-124" target="Oh4bKbvERFsYT3evitHO-131">
          <mxGeometry relative="1" as="geometry" />
        </mxCell>
        <mxCell id="Oh4bKbvERFsYT3evitHO-124" value="int finalArrayIndex = 0;&lt;br&gt;int comparingValue = 3;" style="rounded=0;whiteSpace=wrap;html=1;" vertex="1" parent="1">
          <mxGeometry x="1090" y="905" width="140" height="50" as="geometry" />
        </mxCell>
        <mxCell id="Oh4bKbvERFsYT3evitHO-128" value="false" style="edgeStyle=orthogonalEdgeStyle;rounded=0;orthogonalLoop=1;jettySize=auto;html=1;" edge="1" parent="1" source="Oh4bKbvERFsYT3evitHO-129" target="Oh4bKbvERFsYT3evitHO-134">
          <mxGeometry relative="1" as="geometry" />
        </mxCell>
        <mxCell id="Oh4bKbvERFsYT3evitHO-137" value="true" style="edgeStyle=orthogonalEdgeStyle;rounded=0;orthogonalLoop=1;jettySize=auto;html=1;" edge="1" parent="1" source="Oh4bKbvERFsYT3evitHO-129" target="Oh4bKbvERFsYT3evitHO-136">
          <mxGeometry relative="1" as="geometry" />
        </mxCell>
        <mxCell id="Oh4bKbvERFsYT3evitHO-129" value="i &amp;lt; array.Length" style="rhombus;whiteSpace=wrap;html=1;" vertex="1" parent="1">
          <mxGeometry x="1255" y="1080" width="110" height="80" as="geometry" />
        </mxCell>
        <mxCell id="Oh4bKbvERFsYT3evitHO-130" value="" style="edgeStyle=orthogonalEdgeStyle;rounded=0;orthogonalLoop=1;jettySize=auto;html=1;" edge="1" parent="1" source="Oh4bKbvERFsYT3evitHO-131" target="Oh4bKbvERFsYT3evitHO-129">
          <mxGeometry relative="1" as="geometry" />
        </mxCell>
        <mxCell id="Oh4bKbvERFsYT3evitHO-131" value="int i = 0;" style="rounded=0;whiteSpace=wrap;html=1;" vertex="1" parent="1">
          <mxGeometry x="1125" y="989" width="70" height="40" as="geometry" />
        </mxCell>
        <mxCell id="Oh4bKbvERFsYT3evitHO-134" value="&lt;font size=&quot;1&quot; style=&quot;&quot;&gt;&lt;b style=&quot;font-size: 12px;&quot;&gt;return finalArray;&lt;/b&gt;&lt;/font&gt;" style="ellipse;whiteSpace=wrap;html=1;" vertex="1" parent="1">
          <mxGeometry x="1455" y="1102.5" width="115" height="35" as="geometry" />
        </mxCell>
        <mxCell id="Oh4bKbvERFsYT3evitHO-139" value="true" style="edgeStyle=orthogonalEdgeStyle;rounded=0;orthogonalLoop=1;jettySize=auto;html=1;" edge="1" parent="1" source="Oh4bKbvERFsYT3evitHO-136" target="Oh4bKbvERFsYT3evitHO-138">
          <mxGeometry relative="1" as="geometry">
            <Array as="points">
              <mxPoint x="1480" y="1240" />
            </Array>
          </mxGeometry>
        </mxCell>
        <mxCell id="Oh4bKbvERFsYT3evitHO-141" value="false" style="edgeStyle=orthogonalEdgeStyle;rounded=0;orthogonalLoop=1;jettySize=auto;html=1;" edge="1" parent="1" source="Oh4bKbvERFsYT3evitHO-136" target="Oh4bKbvERFsYT3evitHO-140">
          <mxGeometry relative="1" as="geometry" />
        </mxCell>
        <mxCell id="Oh4bKbvERFsYT3evitHO-136" value="array[i].ToString().Length &amp;lt;= comparingValue" style="rhombus;whiteSpace=wrap;html=1;" vertex="1" parent="1">
          <mxGeometry x="1165" y="1210" width="290" height="60" as="geometry" />
        </mxCell>
        <mxCell id="Oh4bKbvERFsYT3evitHO-142" value="" style="edgeStyle=orthogonalEdgeStyle;rounded=0;orthogonalLoop=1;jettySize=auto;html=1;" edge="1" parent="1" source="Oh4bKbvERFsYT3evitHO-138" target="Oh4bKbvERFsYT3evitHO-140">
          <mxGeometry relative="1" as="geometry" />
        </mxCell>
        <mxCell id="Oh4bKbvERFsYT3evitHO-138" value="finalArray[finalArrayIndex++] = array[i];" style="rounded=0;whiteSpace=wrap;html=1;" vertex="1" parent="1">
          <mxGeometry x="1365" y="1320" width="220" height="40" as="geometry" />
        </mxCell>
        <mxCell id="Oh4bKbvERFsYT3evitHO-143" style="edgeStyle=orthogonalEdgeStyle;rounded=0;orthogonalLoop=1;jettySize=auto;html=1;entryX=0;entryY=0.5;entryDx=0;entryDy=0;" edge="1" parent="1" source="Oh4bKbvERFsYT3evitHO-140" target="Oh4bKbvERFsYT3evitHO-129">
          <mxGeometry relative="1" as="geometry">
            <Array as="points">
              <mxPoint x="1120" y="1340" />
              <mxPoint x="1120" y="1120" />
            </Array>
          </mxGeometry>
        </mxCell>
        <mxCell id="Oh4bKbvERFsYT3evitHO-140" value="i++;" style="rounded=0;whiteSpace=wrap;html=1;" vertex="1" parent="1">
          <mxGeometry x="1282.5" y="1325" width="55" height="30" as="geometry" />
        </mxCell>
      </root>
    </mxGraphModel>
  </diagram>
</mxfile>
